<mxfile host="app.diagrams.net" modified="2024-05-10T13:29:43.791Z" agent="Mozilla/5.0 (Windows NT 10.0; Win64; x64) AppleWebKit/537.36 (KHTML, like Gecko) Chrome/123.0.0.0 Safari/537.36 OPR/109.0.0.0" etag="_SV5jupPNREk0Y3cCMAd" version="24.3.1" type="device">
  <diagram id="C5RBs43oDa-KdzZeNtuy" name="Page-1">
    <mxGraphModel dx="1725" dy="936" grid="1" gridSize="10" guides="1" tooltips="1" connect="1" arrows="1" fold="1" page="1" pageScale="1" pageWidth="3300" pageHeight="2339" math="0" shadow="0">
      <root>
        <mxCell id="WIyWlLk6GJQsqaUBKTNV-0" />
        <mxCell id="WIyWlLk6GJQsqaUBKTNV-1" parent="WIyWlLk6GJQsqaUBKTNV-0" />
        <mxCell id="lOwTtvnKk4PYjDAWeUM3-1" value="&lt;i&gt;Unit&lt;/i&gt;" style="swimlane;fontStyle=1;align=center;verticalAlign=top;childLayout=stackLayout;horizontal=1;startSize=26;horizontalStack=0;resizeParent=1;resizeParentMax=0;resizeLast=0;collapsible=1;marginBottom=0;whiteSpace=wrap;html=1;" vertex="1" parent="WIyWlLk6GJQsqaUBKTNV-1">
          <mxGeometry x="1460" y="450" width="210" height="180" as="geometry" />
        </mxCell>
        <mxCell id="lOwTtvnKk4PYjDAWeUM3-2" value="+ Flags: unsigned int&lt;div&gt;&lt;br&gt;&lt;/div&gt;" style="text;strokeColor=none;fillColor=none;align=left;verticalAlign=top;spacingLeft=4;spacingRight=4;overflow=hidden;rotatable=0;points=[[0,0.5],[1,0.5]];portConstraint=eastwest;whiteSpace=wrap;html=1;" vertex="1" parent="lOwTtvnKk4PYjDAWeUM3-1">
          <mxGeometry y="26" width="210" height="26" as="geometry" />
        </mxCell>
        <mxCell id="lOwTtvnKk4PYjDAWeUM3-3" value="" style="line;strokeWidth=1;fillColor=none;align=left;verticalAlign=middle;spacingTop=-1;spacingLeft=3;spacingRight=3;rotatable=0;labelPosition=right;points=[];portConstraint=eastwest;strokeColor=inherit;" vertex="1" parent="lOwTtvnKk4PYjDAWeUM3-1">
          <mxGeometry y="52" width="210" height="8" as="geometry" />
        </mxCell>
        <mxCell id="lOwTtvnKk4PYjDAWeUM3-4" value="+ &lt;i&gt;add(shared_ptr&amp;lt;Unit&amp;gt;, unsigned int): void&lt;/i&gt;" style="text;strokeColor=none;fillColor=none;align=left;verticalAlign=top;spacingLeft=4;spacingRight=4;overflow=hidden;rotatable=0;points=[[0,0.5],[1,0.5]];portConstraint=eastwest;whiteSpace=wrap;html=1;" vertex="1" parent="lOwTtvnKk4PYjDAWeUM3-1">
          <mxGeometry y="60" width="210" height="40" as="geometry" />
        </mxCell>
        <mxCell id="lOwTtvnKk4PYjDAWeUM3-5" value="&lt;i&gt;+ compile(level: unsigned int, access: string): string&lt;/i&gt;" style="text;strokeColor=none;fillColor=none;align=left;verticalAlign=top;spacingLeft=4;spacingRight=4;overflow=hidden;rotatable=0;points=[[0,0.5],[1,0.5]];portConstraint=eastwest;whiteSpace=wrap;html=1;" vertex="1" parent="lOwTtvnKk4PYjDAWeUM3-1">
          <mxGeometry y="100" width="210" height="40" as="geometry" />
        </mxCell>
        <mxCell id="lOwTtvnKk4PYjDAWeUM3-6" value="&lt;i&gt;# generateShift(level: unsigned int): string&lt;/i&gt;" style="text;strokeColor=none;fillColor=none;align=left;verticalAlign=top;spacingLeft=4;spacingRight=4;overflow=hidden;rotatable=0;points=[[0,0.5],[1,0.5]];portConstraint=eastwest;whiteSpace=wrap;html=1;" vertex="1" parent="lOwTtvnKk4PYjDAWeUM3-1">
          <mxGeometry y="140" width="210" height="40" as="geometry" />
        </mxCell>
        <mxCell id="lOwTtvnKk4PYjDAWeUM3-7" value="&lt;i&gt;ClassUnit&lt;/i&gt;" style="swimlane;fontStyle=1;align=center;verticalAlign=top;childLayout=stackLayout;horizontal=1;startSize=26;horizontalStack=0;resizeParent=1;resizeParentMax=0;resizeLast=0;collapsible=1;marginBottom=0;whiteSpace=wrap;html=1;" vertex="1" parent="WIyWlLk6GJQsqaUBKTNV-1">
          <mxGeometry x="280" y="550" width="250" height="156" as="geometry" />
        </mxCell>
        <mxCell id="lOwTtvnKk4PYjDAWeUM3-8" value="+ AccessModifier" style="text;strokeColor=none;fillColor=none;align=left;verticalAlign=top;spacingLeft=4;spacingRight=4;overflow=hidden;rotatable=0;points=[[0,0.5],[1,0.5]];portConstraint=eastwest;whiteSpace=wrap;html=1;" vertex="1" parent="lOwTtvnKk4PYjDAWeUM3-7">
          <mxGeometry y="26" width="250" height="26" as="geometry" />
        </mxCell>
        <mxCell id="lOwTtvnKk4PYjDAWeUM3-22" value="+ ACCESS_MODIFIERS: vector&amp;lt;string&amp;gt;" style="text;strokeColor=none;fillColor=none;align=left;verticalAlign=top;spacingLeft=4;spacingRight=4;overflow=hidden;rotatable=0;points=[[0,0.5],[1,0.5]];portConstraint=eastwest;whiteSpace=wrap;html=1;" vertex="1" parent="lOwTtvnKk4PYjDAWeUM3-7">
          <mxGeometry y="52" width="250" height="26" as="geometry" />
        </mxCell>
        <mxCell id="lOwTtvnKk4PYjDAWeUM3-23" value="# m_name: string" style="text;strokeColor=none;fillColor=none;align=left;verticalAlign=top;spacingLeft=4;spacingRight=4;overflow=hidden;rotatable=0;points=[[0,0.5],[1,0.5]];portConstraint=eastwest;whiteSpace=wrap;html=1;" vertex="1" parent="lOwTtvnKk4PYjDAWeUM3-7">
          <mxGeometry y="78" width="250" height="26" as="geometry" />
        </mxCell>
        <mxCell id="lOwTtvnKk4PYjDAWeUM3-25" value="# Fields: vector&amp;lt;shared_ptr&amp;lt;Unit&amp;gt;&amp;gt;" style="text;strokeColor=none;fillColor=none;align=left;verticalAlign=top;spacingLeft=4;spacingRight=4;overflow=hidden;rotatable=0;points=[[0,0.5],[1,0.5]];portConstraint=eastwest;whiteSpace=wrap;html=1;" vertex="1" parent="lOwTtvnKk4PYjDAWeUM3-7">
          <mxGeometry y="104" width="250" height="26" as="geometry" />
        </mxCell>
        <mxCell id="lOwTtvnKk4PYjDAWeUM3-24" value="# m_fields: vector&amp;lt;Fields&amp;gt;&lt;span style=&quot;font-family: monospace; font-size: 0px; text-wrap: nowrap;&quot;&gt;%3CmxGraphModel%3E%3Croot%3E%3CmxCell%20id%3D%220%22%2F%3E%3CmxCell%20id%3D%221%22%20parent%3D%220%22%2F%3E%3CmxCell%20id%3D%222%22%20value%3D%22%2B%20ACCESS_MODIFIERS%3A%20vector%26amp%3Blt%3Bstring%26amp%3Bgt%3B%22%20style%3D%22text%3BstrokeColor%3Dnone%3BfillColor%3Dnone%3Balign%3Dleft%3BverticalAlign%3Dtop%3BspacingLeft%3D4%3BspacingRight%3D4%3Boverflow%3Dhidden%3Brotatable%3D0%3Bpoints%3D%5B%5B0%2C0.5%5D%2C%5B1%2C0.5%5D%5D%3BportConstraint%3Deastwest%3BwhiteSpace%3Dwrap%3Bhtml%3D1%3B%22%20vertex%3D%221%22%20parent%3D%221%22%3E%3CmxGeometry%20x%3D%22300%22%20y%3D%22472%22%20width%3D%22250%22%20height%3D%2226%22%20as%3D%22geometry%22%2F%3E%3C%2FmxCell%3E%3C%2Froot%3E%3C%2FmxGraphModel%3E&lt;/span&gt;" style="text;strokeColor=none;fillColor=none;align=left;verticalAlign=top;spacingLeft=4;spacingRight=4;overflow=hidden;rotatable=0;points=[[0,0.5],[1,0.5]];portConstraint=eastwest;whiteSpace=wrap;html=1;" vertex="1" parent="lOwTtvnKk4PYjDAWeUM3-7">
          <mxGeometry y="130" width="250" height="26" as="geometry" />
        </mxCell>
        <mxCell id="lOwTtvnKk4PYjDAWeUM3-11" value="&lt;font style=&quot;font-style: italic; font-size: 10px;&quot;&gt;&amp;lt;&amp;lt;enumeration&amp;gt;&amp;gt;&lt;/font&gt;&lt;br&gt;&lt;b&gt;AccessModifier&lt;/b&gt;" style="swimlane;fontStyle=0;childLayout=stackLayout;horizontal=1;startSize=36;fillColor=none;horizontalStack=0;resizeParent=1;resizeParentMax=0;resizeLast=0;collapsible=1;marginBottom=0;whiteSpace=wrap;html=1;strokeColor=default;" vertex="1" parent="WIyWlLk6GJQsqaUBKTNV-1">
          <mxGeometry x="70" y="576" width="150" height="150" as="geometry" />
        </mxCell>
        <mxCell id="lOwTtvnKk4PYjDAWeUM3-12" value="&lt;div&gt;PUBLIC&lt;/div&gt;&lt;div&gt;&lt;span style=&quot;background-color: initial;&quot;&gt;PROTECTED&lt;/span&gt;&lt;/div&gt;&lt;div&gt;&lt;span style=&quot;background-color: initial;&quot;&gt;PRIVATE&lt;/span&gt;&lt;/div&gt;&lt;div&gt;PRIVATE_PROTECTED&lt;/div&gt;&lt;div&gt;FILE&lt;/div&gt;&lt;div&gt;INTERNAL&lt;/div&gt;&lt;div&gt;PROTECTED_INTERNAL&lt;/div&gt;" style="text;strokeColor=none;fillColor=none;align=left;verticalAlign=top;spacingLeft=4;spacingRight=4;overflow=hidden;rotatable=0;points=[[0,0.5],[1,0.5]];portConstraint=eastwest;whiteSpace=wrap;html=1;" vertex="1" parent="lOwTtvnKk4PYjDAWeUM3-11">
          <mxGeometry y="36" width="150" height="114" as="geometry" />
        </mxCell>
        <mxCell id="lOwTtvnKk4PYjDAWeUM3-21" value="Use" style="endArrow=open;endSize=12;dashed=1;html=1;rounded=0;exitX=0;exitY=0.5;exitDx=0;exitDy=0;entryX=1.013;entryY=0.079;entryDx=0;entryDy=0;entryPerimeter=0;" edge="1" parent="WIyWlLk6GJQsqaUBKTNV-1" source="lOwTtvnKk4PYjDAWeUM3-8" target="lOwTtvnKk4PYjDAWeUM3-11">
          <mxGeometry width="160" relative="1" as="geometry">
            <mxPoint x="190" y="380" as="sourcePoint" />
            <mxPoint x="350" y="380" as="targetPoint" />
          </mxGeometry>
        </mxCell>
        <mxCell id="lOwTtvnKk4PYjDAWeUM3-26" value="&lt;b&gt;CPlusClass&lt;/b&gt;" style="swimlane;fontStyle=0;childLayout=stackLayout;horizontal=1;startSize=26;fillColor=none;horizontalStack=0;resizeParent=1;resizeParentMax=0;resizeLast=0;collapsible=1;marginBottom=0;whiteSpace=wrap;html=1;" vertex="1" parent="WIyWlLk6GJQsqaUBKTNV-1">
          <mxGeometry x="80" y="780" width="210" height="120" as="geometry" />
        </mxCell>
        <mxCell id="lOwTtvnKk4PYjDAWeUM3-27" value="+ add(unit: shared_ptr&amp;lt;Unit&amp;gt;, flags: Flags): void" style="text;strokeColor=none;fillColor=none;align=left;verticalAlign=top;spacingLeft=4;spacingRight=4;overflow=hidden;rotatable=0;points=[[0,0.5],[1,0.5]];portConstraint=eastwest;whiteSpace=wrap;html=1;" vertex="1" parent="lOwTtvnKk4PYjDAWeUM3-26">
          <mxGeometry y="26" width="210" height="44" as="geometry" />
        </mxCell>
        <mxCell id="lOwTtvnKk4PYjDAWeUM3-28" value="+ compile(level: unsigned int, access: string): string" style="text;strokeColor=none;fillColor=none;align=left;verticalAlign=top;spacingLeft=4;spacingRight=4;overflow=hidden;rotatable=0;points=[[0,0.5],[1,0.5]];portConstraint=eastwest;whiteSpace=wrap;html=1;" vertex="1" parent="lOwTtvnKk4PYjDAWeUM3-26">
          <mxGeometry y="70" width="210" height="50" as="geometry" />
        </mxCell>
        <mxCell id="lOwTtvnKk4PYjDAWeUM3-30" value="&lt;b&gt;CSharpClass&lt;/b&gt;" style="swimlane;fontStyle=0;childLayout=stackLayout;horizontal=1;startSize=26;fillColor=none;horizontalStack=0;resizeParent=1;resizeParentMax=0;resizeLast=0;collapsible=1;marginBottom=0;whiteSpace=wrap;html=1;" vertex="1" parent="WIyWlLk6GJQsqaUBKTNV-1">
          <mxGeometry x="300" y="780" width="210" height="120" as="geometry" />
        </mxCell>
        <mxCell id="lOwTtvnKk4PYjDAWeUM3-31" value="+ add(unit: shared_ptr&amp;lt;Unit&amp;gt;, flags: Flags): void" style="text;strokeColor=none;fillColor=none;align=left;verticalAlign=top;spacingLeft=4;spacingRight=4;overflow=hidden;rotatable=0;points=[[0,0.5],[1,0.5]];portConstraint=eastwest;whiteSpace=wrap;html=1;" vertex="1" parent="lOwTtvnKk4PYjDAWeUM3-30">
          <mxGeometry y="26" width="210" height="44" as="geometry" />
        </mxCell>
        <mxCell id="lOwTtvnKk4PYjDAWeUM3-32" value="+ compile(level: unsigned int, access: string): string" style="text;strokeColor=none;fillColor=none;align=left;verticalAlign=top;spacingLeft=4;spacingRight=4;overflow=hidden;rotatable=0;points=[[0,0.5],[1,0.5]];portConstraint=eastwest;whiteSpace=wrap;html=1;" vertex="1" parent="lOwTtvnKk4PYjDAWeUM3-30">
          <mxGeometry y="70" width="210" height="50" as="geometry" />
        </mxCell>
        <mxCell id="lOwTtvnKk4PYjDAWeUM3-33" value="&lt;b&gt;JavaClass&lt;/b&gt;" style="swimlane;fontStyle=0;childLayout=stackLayout;horizontal=1;startSize=26;fillColor=none;horizontalStack=0;resizeParent=1;resizeParentMax=0;resizeLast=0;collapsible=1;marginBottom=0;whiteSpace=wrap;html=1;" vertex="1" parent="WIyWlLk6GJQsqaUBKTNV-1">
          <mxGeometry x="520" y="780" width="210" height="120" as="geometry" />
        </mxCell>
        <mxCell id="lOwTtvnKk4PYjDAWeUM3-34" value="+ add(unit: shared_ptr&amp;lt;Unit&amp;gt;, flags: Flags): void" style="text;strokeColor=none;fillColor=none;align=left;verticalAlign=top;spacingLeft=4;spacingRight=4;overflow=hidden;rotatable=0;points=[[0,0.5],[1,0.5]];portConstraint=eastwest;whiteSpace=wrap;html=1;" vertex="1" parent="lOwTtvnKk4PYjDAWeUM3-33">
          <mxGeometry y="26" width="210" height="44" as="geometry" />
        </mxCell>
        <mxCell id="lOwTtvnKk4PYjDAWeUM3-35" value="+ compile(level: unsigned int, access: string): string" style="text;strokeColor=none;fillColor=none;align=left;verticalAlign=top;spacingLeft=4;spacingRight=4;overflow=hidden;rotatable=0;points=[[0,0.5],[1,0.5]];portConstraint=eastwest;whiteSpace=wrap;html=1;" vertex="1" parent="lOwTtvnKk4PYjDAWeUM3-33">
          <mxGeometry y="70" width="210" height="50" as="geometry" />
        </mxCell>
        <mxCell id="lOwTtvnKk4PYjDAWeUM3-37" value="&lt;i&gt;MethodUnit&lt;/i&gt;" style="swimlane;fontStyle=1;align=center;verticalAlign=top;childLayout=stackLayout;horizontal=1;startSize=26;horizontalStack=0;resizeParent=1;resizeParentMax=0;resizeLast=0;collapsible=1;marginBottom=0;whiteSpace=wrap;html=1;" vertex="1" parent="WIyWlLk6GJQsqaUBKTNV-1">
          <mxGeometry x="970" y="518" width="220" height="208" as="geometry" />
        </mxCell>
        <mxCell id="lOwTtvnKk4PYjDAWeUM3-38" value="+ Modifier" style="text;strokeColor=none;fillColor=none;align=left;verticalAlign=top;spacingLeft=4;spacingRight=4;overflow=hidden;rotatable=0;points=[[0,0.5],[1,0.5]];portConstraint=eastwest;whiteSpace=wrap;html=1;" vertex="1" parent="lOwTtvnKk4PYjDAWeUM3-37">
          <mxGeometry y="26" width="220" height="26" as="geometry" />
        </mxCell>
        <mxCell id="lOwTtvnKk4PYjDAWeUM3-46" value="# m_name: string" style="text;strokeColor=none;fillColor=none;align=left;verticalAlign=top;spacingLeft=4;spacingRight=4;overflow=hidden;rotatable=0;points=[[0,0.5],[1,0.5]];portConstraint=eastwest;whiteSpace=wrap;html=1;" vertex="1" parent="lOwTtvnKk4PYjDAWeUM3-37">
          <mxGeometry y="52" width="220" height="26" as="geometry" />
        </mxCell>
        <mxCell id="lOwTtvnKk4PYjDAWeUM3-45" value="# m_returnType: string" style="text;strokeColor=none;fillColor=none;align=left;verticalAlign=top;spacingLeft=4;spacingRight=4;overflow=hidden;rotatable=0;points=[[0,0.5],[1,0.5]];portConstraint=eastwest;whiteSpace=wrap;html=1;" vertex="1" parent="lOwTtvnKk4PYjDAWeUM3-37">
          <mxGeometry y="78" width="220" height="26" as="geometry" />
        </mxCell>
        <mxCell id="lOwTtvnKk4PYjDAWeUM3-47" value="# m_flags: unsigned int" style="text;strokeColor=none;fillColor=none;align=left;verticalAlign=top;spacingLeft=4;spacingRight=4;overflow=hidden;rotatable=0;points=[[0,0.5],[1,0.5]];portConstraint=eastwest;whiteSpace=wrap;html=1;" vertex="1" parent="lOwTtvnKk4PYjDAWeUM3-37">
          <mxGeometry y="104" width="220" height="26" as="geometry" />
        </mxCell>
        <mxCell id="lOwTtvnKk4PYjDAWeUM3-48" value="# m_body: vector&amp;lt;shared_ptr&amp;lt;Unit&amp;gt;&amp;gt;" style="text;strokeColor=none;fillColor=none;align=left;verticalAlign=top;spacingLeft=4;spacingRight=4;overflow=hidden;rotatable=0;points=[[0,0.5],[1,0.5]];portConstraint=eastwest;whiteSpace=wrap;html=1;" vertex="1" parent="lOwTtvnKk4PYjDAWeUM3-37">
          <mxGeometry y="130" width="220" height="26" as="geometry" />
        </mxCell>
        <mxCell id="lOwTtvnKk4PYjDAWeUM3-39" value="" style="line;strokeWidth=1;fillColor=none;align=left;verticalAlign=middle;spacingTop=-1;spacingLeft=3;spacingRight=3;rotatable=0;labelPosition=right;points=[];portConstraint=eastwest;strokeColor=inherit;" vertex="1" parent="lOwTtvnKk4PYjDAWeUM3-37">
          <mxGeometry y="156" width="220" height="8" as="geometry" />
        </mxCell>
        <mxCell id="lOwTtvnKk4PYjDAWeUM3-44" value="+ add(unit: shared_ptr&amp;lt;Unit&amp;gt;, flags: Flags): void" style="text;strokeColor=none;fillColor=none;align=left;verticalAlign=top;spacingLeft=4;spacingRight=4;overflow=hidden;rotatable=0;points=[[0,0.5],[1,0.5]];portConstraint=eastwest;whiteSpace=wrap;html=1;" vertex="1" parent="lOwTtvnKk4PYjDAWeUM3-37">
          <mxGeometry y="164" width="220" height="44" as="geometry" />
        </mxCell>
        <mxCell id="lOwTtvnKk4PYjDAWeUM3-41" value="&lt;font style=&quot;font-style: italic; font-size: 10px;&quot;&gt;&amp;lt;&amp;lt;enumeration&amp;gt;&amp;gt;&lt;/font&gt;&lt;br&gt;&lt;b&gt;Modifier&lt;/b&gt;" style="swimlane;fontStyle=0;childLayout=stackLayout;horizontal=1;startSize=36;fillColor=none;horizontalStack=0;resizeParent=1;resizeParentMax=0;resizeLast=0;collapsible=1;marginBottom=0;whiteSpace=wrap;html=1;strokeColor=default;" vertex="1" parent="WIyWlLk6GJQsqaUBKTNV-1">
          <mxGeometry x="710" y="550" width="150" height="120" as="geometry" />
        </mxCell>
        <mxCell id="lOwTtvnKk4PYjDAWeUM3-42" value="&lt;div&gt;STATIC&lt;br&gt;COSNT&lt;br&gt;VIRTUAL&lt;br&gt;FINAL&lt;br&gt;ABSTRACT&lt;/div&gt;" style="text;strokeColor=none;fillColor=none;align=left;verticalAlign=top;spacingLeft=4;spacingRight=4;overflow=hidden;rotatable=0;points=[[0,0.5],[1,0.5]];portConstraint=eastwest;whiteSpace=wrap;html=1;" vertex="1" parent="lOwTtvnKk4PYjDAWeUM3-41">
          <mxGeometry y="36" width="150" height="84" as="geometry" />
        </mxCell>
        <mxCell id="lOwTtvnKk4PYjDAWeUM3-43" value="Use" style="endArrow=open;endSize=12;dashed=1;html=1;rounded=0;entryX=1.013;entryY=0.079;entryDx=0;entryDy=0;entryPerimeter=0;" edge="1" parent="WIyWlLk6GJQsqaUBKTNV-1" target="lOwTtvnKk4PYjDAWeUM3-41" source="lOwTtvnKk4PYjDAWeUM3-38">
          <mxGeometry width="160" relative="1" as="geometry">
            <mxPoint x="680" y="105" as="sourcePoint" />
            <mxPoint x="820" y="56" as="targetPoint" />
          </mxGeometry>
        </mxCell>
        <mxCell id="lOwTtvnKk4PYjDAWeUM3-49" value="&lt;b&gt;CPlusMethod&lt;/b&gt;" style="swimlane;fontStyle=0;childLayout=stackLayout;horizontal=1;startSize=26;fillColor=none;horizontalStack=0;resizeParent=1;resizeParentMax=0;resizeLast=0;collapsible=1;marginBottom=0;whiteSpace=wrap;html=1;" vertex="1" parent="WIyWlLk6GJQsqaUBKTNV-1">
          <mxGeometry x="750" y="780" width="210" height="76" as="geometry" />
        </mxCell>
        <mxCell id="lOwTtvnKk4PYjDAWeUM3-51" value="+ compile(level: unsigned int, access: string): string" style="text;strokeColor=none;fillColor=none;align=left;verticalAlign=top;spacingLeft=4;spacingRight=4;overflow=hidden;rotatable=0;points=[[0,0.5],[1,0.5]];portConstraint=eastwest;whiteSpace=wrap;html=1;" vertex="1" parent="lOwTtvnKk4PYjDAWeUM3-49">
          <mxGeometry y="26" width="210" height="50" as="geometry" />
        </mxCell>
        <mxCell id="lOwTtvnKk4PYjDAWeUM3-52" value="&lt;b&gt;CSharpMethod&lt;/b&gt;" style="swimlane;fontStyle=0;childLayout=stackLayout;horizontal=1;startSize=26;fillColor=none;horizontalStack=0;resizeParent=1;resizeParentMax=0;resizeLast=0;collapsible=1;marginBottom=0;whiteSpace=wrap;html=1;" vertex="1" parent="WIyWlLk6GJQsqaUBKTNV-1">
          <mxGeometry x="970" y="780" width="210" height="76" as="geometry" />
        </mxCell>
        <mxCell id="lOwTtvnKk4PYjDAWeUM3-53" value="+ compile(level: unsigned int, access: string): string" style="text;strokeColor=none;fillColor=none;align=left;verticalAlign=top;spacingLeft=4;spacingRight=4;overflow=hidden;rotatable=0;points=[[0,0.5],[1,0.5]];portConstraint=eastwest;whiteSpace=wrap;html=1;" vertex="1" parent="lOwTtvnKk4PYjDAWeUM3-52">
          <mxGeometry y="26" width="210" height="50" as="geometry" />
        </mxCell>
        <mxCell id="lOwTtvnKk4PYjDAWeUM3-54" value="&lt;b&gt;JavaMethod&lt;/b&gt;" style="swimlane;fontStyle=0;childLayout=stackLayout;horizontal=1;startSize=26;fillColor=none;horizontalStack=0;resizeParent=1;resizeParentMax=0;resizeLast=0;collapsible=1;marginBottom=0;whiteSpace=wrap;html=1;" vertex="1" parent="WIyWlLk6GJQsqaUBKTNV-1">
          <mxGeometry x="1200" y="780" width="210" height="76" as="geometry" />
        </mxCell>
        <mxCell id="lOwTtvnKk4PYjDAWeUM3-55" value="+ compile(level: unsigned int, access: string): string" style="text;strokeColor=none;fillColor=none;align=left;verticalAlign=top;spacingLeft=4;spacingRight=4;overflow=hidden;rotatable=0;points=[[0,0.5],[1,0.5]];portConstraint=eastwest;whiteSpace=wrap;html=1;" vertex="1" parent="lOwTtvnKk4PYjDAWeUM3-54">
          <mxGeometry y="26" width="210" height="50" as="geometry" />
        </mxCell>
        <mxCell id="lOwTtvnKk4PYjDAWeUM3-56" value="&lt;b&gt;&lt;i&gt;PrintOperatorUnit&lt;/i&gt;&lt;/b&gt;" style="swimlane;fontStyle=0;childLayout=stackLayout;horizontal=1;startSize=26;fillColor=none;horizontalStack=0;resizeParent=1;resizeParentMax=0;resizeLast=0;collapsible=1;marginBottom=0;whiteSpace=wrap;html=1;" vertex="1" parent="WIyWlLk6GJQsqaUBKTNV-1">
          <mxGeometry x="1540" y="1010" width="140" height="52" as="geometry" />
        </mxCell>
        <mxCell id="lOwTtvnKk4PYjDAWeUM3-57" value="# m_text: string" style="text;strokeColor=none;fillColor=none;align=left;verticalAlign=top;spacingLeft=4;spacingRight=4;overflow=hidden;rotatable=0;points=[[0,0.5],[1,0.5]];portConstraint=eastwest;whiteSpace=wrap;html=1;" vertex="1" parent="lOwTtvnKk4PYjDAWeUM3-56">
          <mxGeometry y="26" width="140" height="26" as="geometry" />
        </mxCell>
        <mxCell id="lOwTtvnKk4PYjDAWeUM3-60" value="&lt;b&gt;CPlusPrintOperator&lt;/b&gt;" style="swimlane;fontStyle=0;childLayout=stackLayout;horizontal=1;startSize=26;fillColor=none;horizontalStack=0;resizeParent=1;resizeParentMax=0;resizeLast=0;collapsible=1;marginBottom=0;whiteSpace=wrap;html=1;" vertex="1" parent="WIyWlLk6GJQsqaUBKTNV-1">
          <mxGeometry x="1320" y="880" width="130" height="90" as="geometry" />
        </mxCell>
        <mxCell id="lOwTtvnKk4PYjDAWeUM3-61" value="+ compile(level: unsigned int, access: string): string" style="text;strokeColor=none;fillColor=none;align=left;verticalAlign=top;spacingLeft=4;spacingRight=4;overflow=hidden;rotatable=0;points=[[0,0.5],[1,0.5]];portConstraint=eastwest;whiteSpace=wrap;html=1;" vertex="1" parent="lOwTtvnKk4PYjDAWeUM3-60">
          <mxGeometry y="26" width="130" height="64" as="geometry" />
        </mxCell>
        <mxCell id="lOwTtvnKk4PYjDAWeUM3-62" value="&lt;b&gt;CSharpPrintOperator&lt;/b&gt;" style="swimlane;fontStyle=0;childLayout=stackLayout;horizontal=1;startSize=26;fillColor=none;horizontalStack=0;resizeParent=1;resizeParentMax=0;resizeLast=0;collapsible=1;marginBottom=0;whiteSpace=wrap;html=1;" vertex="1" parent="WIyWlLk6GJQsqaUBKTNV-1">
          <mxGeometry x="1320" y="1000" width="130" height="90" as="geometry" />
        </mxCell>
        <mxCell id="lOwTtvnKk4PYjDAWeUM3-63" value="+ compile(level: unsigned int, access: string): string" style="text;strokeColor=none;fillColor=none;align=left;verticalAlign=top;spacingLeft=4;spacingRight=4;overflow=hidden;rotatable=0;points=[[0,0.5],[1,0.5]];portConstraint=eastwest;whiteSpace=wrap;html=1;" vertex="1" parent="lOwTtvnKk4PYjDAWeUM3-62">
          <mxGeometry y="26" width="130" height="64" as="geometry" />
        </mxCell>
        <mxCell id="lOwTtvnKk4PYjDAWeUM3-64" value="&lt;b&gt;JavaPrintOperator&lt;/b&gt;" style="swimlane;fontStyle=0;childLayout=stackLayout;horizontal=1;startSize=26;fillColor=none;horizontalStack=0;resizeParent=1;resizeParentMax=0;resizeLast=0;collapsible=1;marginBottom=0;whiteSpace=wrap;html=1;" vertex="1" parent="WIyWlLk6GJQsqaUBKTNV-1">
          <mxGeometry x="1320" y="1110" width="130" height="90" as="geometry" />
        </mxCell>
        <mxCell id="lOwTtvnKk4PYjDAWeUM3-65" value="+ compile(level: unsigned int, access: string): string" style="text;strokeColor=none;fillColor=none;align=left;verticalAlign=top;spacingLeft=4;spacingRight=4;overflow=hidden;rotatable=0;points=[[0,0.5],[1,0.5]];portConstraint=eastwest;whiteSpace=wrap;html=1;" vertex="1" parent="lOwTtvnKk4PYjDAWeUM3-64">
          <mxGeometry y="26" width="130" height="64" as="geometry" />
        </mxCell>
        <mxCell id="lOwTtvnKk4PYjDAWeUM3-66" value="" style="endArrow=block;endSize=16;endFill=0;html=1;rounded=0;" edge="1" parent="WIyWlLk6GJQsqaUBKTNV-1" source="lOwTtvnKk4PYjDAWeUM3-26" target="lOwTtvnKk4PYjDAWeUM3-7">
          <mxGeometry width="160" relative="1" as="geometry">
            <mxPoint x="720" y="520" as="sourcePoint" />
            <mxPoint x="880" y="520" as="targetPoint" />
            <Array as="points" />
          </mxGeometry>
        </mxCell>
        <mxCell id="lOwTtvnKk4PYjDAWeUM3-68" value="" style="endArrow=block;endSize=16;endFill=0;html=1;rounded=0;" edge="1" parent="WIyWlLk6GJQsqaUBKTNV-1" source="lOwTtvnKk4PYjDAWeUM3-30" target="lOwTtvnKk4PYjDAWeUM3-7">
          <mxGeometry width="160" relative="1" as="geometry">
            <mxPoint x="233" y="660" as="sourcePoint" />
            <mxPoint x="333" y="556" as="targetPoint" />
            <Array as="points" />
          </mxGeometry>
        </mxCell>
        <mxCell id="lOwTtvnKk4PYjDAWeUM3-69" value="" style="endArrow=block;endSize=16;endFill=0;html=1;rounded=0;" edge="1" parent="WIyWlLk6GJQsqaUBKTNV-1" source="lOwTtvnKk4PYjDAWeUM3-33" target="lOwTtvnKk4PYjDAWeUM3-7">
          <mxGeometry width="160" relative="1" as="geometry">
            <mxPoint x="390" y="660" as="sourcePoint" />
            <mxPoint x="364" y="556" as="targetPoint" />
            <Array as="points" />
          </mxGeometry>
        </mxCell>
        <mxCell id="lOwTtvnKk4PYjDAWeUM3-70" value="" style="endArrow=block;endSize=16;endFill=0;html=1;rounded=0;" edge="1" parent="WIyWlLk6GJQsqaUBKTNV-1" source="lOwTtvnKk4PYjDAWeUM3-49" target="lOwTtvnKk4PYjDAWeUM3-37">
          <mxGeometry width="160" relative="1" as="geometry">
            <mxPoint x="596" y="384" as="sourcePoint" />
            <mxPoint x="570" y="280" as="targetPoint" />
            <Array as="points" />
          </mxGeometry>
        </mxCell>
        <mxCell id="lOwTtvnKk4PYjDAWeUM3-71" value="" style="endArrow=block;endSize=16;endFill=0;html=1;rounded=0;" edge="1" parent="WIyWlLk6GJQsqaUBKTNV-1" source="lOwTtvnKk4PYjDAWeUM3-52" target="lOwTtvnKk4PYjDAWeUM3-37">
          <mxGeometry width="160" relative="1" as="geometry">
            <mxPoint x="410" y="680" as="sourcePoint" />
            <mxPoint x="384" y="576" as="targetPoint" />
            <Array as="points" />
          </mxGeometry>
        </mxCell>
        <mxCell id="lOwTtvnKk4PYjDAWeUM3-72" value="" style="endArrow=block;endSize=16;endFill=0;html=1;rounded=0;" edge="1" parent="WIyWlLk6GJQsqaUBKTNV-1" source="lOwTtvnKk4PYjDAWeUM3-54" target="lOwTtvnKk4PYjDAWeUM3-37">
          <mxGeometry width="160" relative="1" as="geometry">
            <mxPoint x="420" y="690" as="sourcePoint" />
            <mxPoint x="394" y="586" as="targetPoint" />
            <Array as="points" />
          </mxGeometry>
        </mxCell>
        <mxCell id="lOwTtvnKk4PYjDAWeUM3-73" value="" style="endArrow=block;endSize=16;endFill=0;html=1;rounded=0;" edge="1" parent="WIyWlLk6GJQsqaUBKTNV-1" source="lOwTtvnKk4PYjDAWeUM3-60" target="lOwTtvnKk4PYjDAWeUM3-56">
          <mxGeometry width="160" relative="1" as="geometry">
            <mxPoint x="1150" y="330" as="sourcePoint" />
            <mxPoint x="1056" y="260" as="targetPoint" />
            <Array as="points" />
          </mxGeometry>
        </mxCell>
        <mxCell id="lOwTtvnKk4PYjDAWeUM3-74" value="" style="endArrow=block;endSize=16;endFill=0;html=1;rounded=0;" edge="1" parent="WIyWlLk6GJQsqaUBKTNV-1" source="lOwTtvnKk4PYjDAWeUM3-62" target="lOwTtvnKk4PYjDAWeUM3-56">
          <mxGeometry width="160" relative="1" as="geometry">
            <mxPoint x="1034" y="358" as="sourcePoint" />
            <mxPoint x="940" y="288" as="targetPoint" />
            <Array as="points" />
          </mxGeometry>
        </mxCell>
        <mxCell id="lOwTtvnKk4PYjDAWeUM3-75" value="" style="endArrow=block;endSize=16;endFill=0;html=1;rounded=0;" edge="1" parent="WIyWlLk6GJQsqaUBKTNV-1" source="lOwTtvnKk4PYjDAWeUM3-64" target="lOwTtvnKk4PYjDAWeUM3-56">
          <mxGeometry width="160" relative="1" as="geometry">
            <mxPoint x="1044" y="368" as="sourcePoint" />
            <mxPoint x="950" y="298" as="targetPoint" />
            <Array as="points" />
          </mxGeometry>
        </mxCell>
        <mxCell id="lOwTtvnKk4PYjDAWeUM3-76" value="" style="endArrow=block;endSize=16;endFill=0;html=1;rounded=0;" edge="1" parent="WIyWlLk6GJQsqaUBKTNV-1" source="lOwTtvnKk4PYjDAWeUM3-7" target="lOwTtvnKk4PYjDAWeUM3-1">
          <mxGeometry width="160" relative="1" as="geometry">
            <mxPoint x="647" y="354" as="sourcePoint" />
            <mxPoint x="570" y="280" as="targetPoint" />
            <Array as="points">
              <mxPoint x="400" y="460" />
              <mxPoint x="1380" y="460" />
              <mxPoint x="1380" y="540" />
            </Array>
          </mxGeometry>
        </mxCell>
        <mxCell id="lOwTtvnKk4PYjDAWeUM3-77" value="" style="endArrow=block;endSize=16;endFill=0;html=1;rounded=0;" edge="1" parent="WIyWlLk6GJQsqaUBKTNV-1" source="lOwTtvnKk4PYjDAWeUM3-37" target="lOwTtvnKk4PYjDAWeUM3-1">
          <mxGeometry width="160" relative="1" as="geometry">
            <mxPoint x="535" y="560" as="sourcePoint" />
            <mxPoint x="940" y="298" as="targetPoint" />
            <Array as="points" />
          </mxGeometry>
        </mxCell>
        <mxCell id="lOwTtvnKk4PYjDAWeUM3-78" value="" style="endArrow=block;endSize=16;endFill=0;html=1;rounded=0;" edge="1" parent="WIyWlLk6GJQsqaUBKTNV-1" source="lOwTtvnKk4PYjDAWeUM3-56" target="lOwTtvnKk4PYjDAWeUM3-1">
          <mxGeometry width="160" relative="1" as="geometry">
            <mxPoint x="1074" y="500" as="sourcePoint" />
            <mxPoint x="1055" y="320" as="targetPoint" />
            <Array as="points" />
          </mxGeometry>
        </mxCell>
        <mxCell id="lOwTtvnKk4PYjDAWeUM3-79" value="&lt;i&gt;&lt;b&gt;Factory&lt;/b&gt;&lt;/i&gt;" style="swimlane;fontStyle=0;childLayout=stackLayout;horizontal=1;startSize=26;fillColor=none;horizontalStack=0;resizeParent=1;resizeParentMax=0;resizeLast=0;collapsible=1;marginBottom=0;whiteSpace=wrap;html=1;" vertex="1" parent="WIyWlLk6GJQsqaUBKTNV-1">
          <mxGeometry x="360" y="1270" width="200" height="174" as="geometry" />
        </mxCell>
        <mxCell id="lOwTtvnKk4PYjDAWeUM3-80" value="&lt;i&gt;+ CreateClass(name: string): shared_ptr&amp;lt;Unit&amp;gt;&lt;/i&gt;" style="text;strokeColor=none;fillColor=none;align=left;verticalAlign=top;spacingLeft=4;spacingRight=4;overflow=hidden;rotatable=0;points=[[0,0.5],[1,0.5]];portConstraint=eastwest;whiteSpace=wrap;html=1;" vertex="1" parent="lOwTtvnKk4PYjDAWeUM3-79">
          <mxGeometry y="26" width="200" height="44" as="geometry" />
        </mxCell>
        <mxCell id="lOwTtvnKk4PYjDAWeUM3-83" value="&lt;i&gt;+ CreateMethod(name: string, returnType: string, flags: unsigned int): shared_ptr&amp;lt;Unit&amp;gt;&lt;/i&gt;" style="text;strokeColor=none;fillColor=none;align=left;verticalAlign=top;spacingLeft=4;spacingRight=4;overflow=hidden;rotatable=0;points=[[0,0.5],[1,0.5]];portConstraint=eastwest;whiteSpace=wrap;html=1;" vertex="1" parent="lOwTtvnKk4PYjDAWeUM3-79">
          <mxGeometry y="70" width="200" height="60" as="geometry" />
        </mxCell>
        <mxCell id="lOwTtvnKk4PYjDAWeUM3-84" value="&lt;i&gt;+ CreatePrintOperator(text: string): shared_ptr&amp;lt;Unit&amp;gt;&lt;/i&gt;" style="text;strokeColor=none;fillColor=none;align=left;verticalAlign=top;spacingLeft=4;spacingRight=4;overflow=hidden;rotatable=0;points=[[0,0.5],[1,0.5]];portConstraint=eastwest;whiteSpace=wrap;html=1;" vertex="1" parent="lOwTtvnKk4PYjDAWeUM3-79">
          <mxGeometry y="130" width="200" height="44" as="geometry" />
        </mxCell>
        <mxCell id="lOwTtvnKk4PYjDAWeUM3-85" value="&lt;b style=&quot;&quot;&gt;CSharpFactory&lt;/b&gt;" style="swimlane;fontStyle=0;childLayout=stackLayout;horizontal=1;startSize=26;fillColor=none;horizontalStack=0;resizeParent=1;resizeParentMax=0;resizeLast=0;collapsible=1;marginBottom=0;whiteSpace=wrap;html=1;" vertex="1" parent="WIyWlLk6GJQsqaUBKTNV-1">
          <mxGeometry x="680" y="1000" width="200" height="174" as="geometry" />
        </mxCell>
        <mxCell id="lOwTtvnKk4PYjDAWeUM3-86" value="+ CreateClass(name: string): shared_ptr&amp;lt;Unit&amp;gt;" style="text;strokeColor=none;fillColor=none;align=left;verticalAlign=top;spacingLeft=4;spacingRight=4;overflow=hidden;rotatable=0;points=[[0,0.5],[1,0.5]];portConstraint=eastwest;whiteSpace=wrap;html=1;" vertex="1" parent="lOwTtvnKk4PYjDAWeUM3-85">
          <mxGeometry y="26" width="200" height="44" as="geometry" />
        </mxCell>
        <mxCell id="lOwTtvnKk4PYjDAWeUM3-87" value="+ CreateMethod(name: string, returnType: string, flags: unsigned int): shared_ptr&amp;lt;Unit&amp;gt;" style="text;strokeColor=none;fillColor=none;align=left;verticalAlign=top;spacingLeft=4;spacingRight=4;overflow=hidden;rotatable=0;points=[[0,0.5],[1,0.5]];portConstraint=eastwest;whiteSpace=wrap;html=1;" vertex="1" parent="lOwTtvnKk4PYjDAWeUM3-85">
          <mxGeometry y="70" width="200" height="60" as="geometry" />
        </mxCell>
        <mxCell id="lOwTtvnKk4PYjDAWeUM3-88" value="+ CreatePrintOperator(text: string): shared_ptr&amp;lt;Unit&amp;gt;" style="text;strokeColor=none;fillColor=none;align=left;verticalAlign=top;spacingLeft=4;spacingRight=4;overflow=hidden;rotatable=0;points=[[0,0.5],[1,0.5]];portConstraint=eastwest;whiteSpace=wrap;html=1;" vertex="1" parent="lOwTtvnKk4PYjDAWeUM3-85">
          <mxGeometry y="130" width="200" height="44" as="geometry" />
        </mxCell>
        <mxCell id="lOwTtvnKk4PYjDAWeUM3-89" value="&lt;b style=&quot;&quot;&gt;JavaFactory&lt;/b&gt;" style="swimlane;fontStyle=0;childLayout=stackLayout;horizontal=1;startSize=26;fillColor=none;horizontalStack=0;resizeParent=1;resizeParentMax=0;resizeLast=0;collapsible=1;marginBottom=0;whiteSpace=wrap;html=1;" vertex="1" parent="WIyWlLk6GJQsqaUBKTNV-1">
          <mxGeometry x="680" y="1270" width="200" height="174" as="geometry" />
        </mxCell>
        <mxCell id="lOwTtvnKk4PYjDAWeUM3-90" value="+ CreateClass(name: string): shared_ptr&amp;lt;Unit&amp;gt;" style="text;strokeColor=none;fillColor=none;align=left;verticalAlign=top;spacingLeft=4;spacingRight=4;overflow=hidden;rotatable=0;points=[[0,0.5],[1,0.5]];portConstraint=eastwest;whiteSpace=wrap;html=1;" vertex="1" parent="lOwTtvnKk4PYjDAWeUM3-89">
          <mxGeometry y="26" width="200" height="44" as="geometry" />
        </mxCell>
        <mxCell id="lOwTtvnKk4PYjDAWeUM3-91" value="+ CreateMethod(name: string, returnType: string, flags: unsigned int): shared_ptr&amp;lt;Unit&amp;gt;" style="text;strokeColor=none;fillColor=none;align=left;verticalAlign=top;spacingLeft=4;spacingRight=4;overflow=hidden;rotatable=0;points=[[0,0.5],[1,0.5]];portConstraint=eastwest;whiteSpace=wrap;html=1;" vertex="1" parent="lOwTtvnKk4PYjDAWeUM3-89">
          <mxGeometry y="70" width="200" height="60" as="geometry" />
        </mxCell>
        <mxCell id="lOwTtvnKk4PYjDAWeUM3-92" value="+ CreatePrintOperator(text: string): shared_ptr&amp;lt;Unit&amp;gt;" style="text;strokeColor=none;fillColor=none;align=left;verticalAlign=top;spacingLeft=4;spacingRight=4;overflow=hidden;rotatable=0;points=[[0,0.5],[1,0.5]];portConstraint=eastwest;whiteSpace=wrap;html=1;" vertex="1" parent="lOwTtvnKk4PYjDAWeUM3-89">
          <mxGeometry y="130" width="200" height="44" as="geometry" />
        </mxCell>
        <mxCell id="lOwTtvnKk4PYjDAWeUM3-93" value="&lt;b style=&quot;&quot;&gt;CPlusFactory&lt;/b&gt;" style="swimlane;fontStyle=0;childLayout=stackLayout;horizontal=1;startSize=26;fillColor=none;horizontalStack=0;resizeParent=1;resizeParentMax=0;resizeLast=0;collapsible=1;marginBottom=0;whiteSpace=wrap;html=1;" vertex="1" parent="WIyWlLk6GJQsqaUBKTNV-1">
          <mxGeometry x="360" y="1000" width="200" height="174" as="geometry" />
        </mxCell>
        <mxCell id="lOwTtvnKk4PYjDAWeUM3-94" value="+ CreateClass(name: string): shared_ptr&amp;lt;Unit&amp;gt;" style="text;strokeColor=none;fillColor=none;align=left;verticalAlign=top;spacingLeft=4;spacingRight=4;overflow=hidden;rotatable=0;points=[[0,0.5],[1,0.5]];portConstraint=eastwest;whiteSpace=wrap;html=1;" vertex="1" parent="lOwTtvnKk4PYjDAWeUM3-93">
          <mxGeometry y="26" width="200" height="44" as="geometry" />
        </mxCell>
        <mxCell id="lOwTtvnKk4PYjDAWeUM3-95" value="+ CreateMethod(name: string, returnType: string, flags: unsigned int): shared_ptr&amp;lt;Unit&amp;gt;" style="text;strokeColor=none;fillColor=none;align=left;verticalAlign=top;spacingLeft=4;spacingRight=4;overflow=hidden;rotatable=0;points=[[0,0.5],[1,0.5]];portConstraint=eastwest;whiteSpace=wrap;html=1;" vertex="1" parent="lOwTtvnKk4PYjDAWeUM3-93">
          <mxGeometry y="70" width="200" height="60" as="geometry" />
        </mxCell>
        <mxCell id="lOwTtvnKk4PYjDAWeUM3-96" value="+ CreatePrintOperator(text: string): shared_ptr&amp;lt;Unit&amp;gt;" style="text;strokeColor=none;fillColor=none;align=left;verticalAlign=top;spacingLeft=4;spacingRight=4;overflow=hidden;rotatable=0;points=[[0,0.5],[1,0.5]];portConstraint=eastwest;whiteSpace=wrap;html=1;" vertex="1" parent="lOwTtvnKk4PYjDAWeUM3-93">
          <mxGeometry y="130" width="200" height="44" as="geometry" />
        </mxCell>
        <mxCell id="lOwTtvnKk4PYjDAWeUM3-97" value="" style="endArrow=block;endSize=16;endFill=0;html=1;rounded=0;" edge="1" parent="WIyWlLk6GJQsqaUBKTNV-1" source="lOwTtvnKk4PYjDAWeUM3-85" target="lOwTtvnKk4PYjDAWeUM3-79">
          <mxGeometry width="160" relative="1" as="geometry">
            <mxPoint x="270" y="1510" as="sourcePoint" />
            <mxPoint x="430" y="1510" as="targetPoint" />
          </mxGeometry>
        </mxCell>
        <mxCell id="lOwTtvnKk4PYjDAWeUM3-98" value="" style="endArrow=block;endSize=16;endFill=0;html=1;rounded=0;" edge="1" parent="WIyWlLk6GJQsqaUBKTNV-1" source="lOwTtvnKk4PYjDAWeUM3-89" target="lOwTtvnKk4PYjDAWeUM3-79">
          <mxGeometry width="160" relative="1" as="geometry">
            <mxPoint x="303" y="1600" as="sourcePoint" />
            <mxPoint x="407" y="1454" as="targetPoint" />
          </mxGeometry>
        </mxCell>
        <mxCell id="lOwTtvnKk4PYjDAWeUM3-99" value="" style="endArrow=block;endSize=16;endFill=0;html=1;rounded=0;" edge="1" parent="WIyWlLk6GJQsqaUBKTNV-1" source="lOwTtvnKk4PYjDAWeUM3-93" target="lOwTtvnKk4PYjDAWeUM3-79">
          <mxGeometry width="160" relative="1" as="geometry">
            <mxPoint x="470" y="1600" as="sourcePoint" />
            <mxPoint x="470" y="1454" as="targetPoint" />
          </mxGeometry>
        </mxCell>
        <mxCell id="lOwTtvnKk4PYjDAWeUM3-100" value="" style="endArrow=open;endSize=12;dashed=1;html=1;rounded=0;" edge="1" parent="WIyWlLk6GJQsqaUBKTNV-1" source="lOwTtvnKk4PYjDAWeUM3-93" target="lOwTtvnKk4PYjDAWeUM3-26">
          <mxGeometry width="160" relative="1" as="geometry">
            <mxPoint x="410" y="960" as="sourcePoint" />
            <mxPoint x="290" y="1060" as="targetPoint" />
            <Array as="points">
              <mxPoint x="460" y="960" />
              <mxPoint x="185" y="960" />
            </Array>
          </mxGeometry>
        </mxCell>
        <mxCell id="lOwTtvnKk4PYjDAWeUM3-101" value="" style="endArrow=open;endSize=12;dashed=1;html=1;rounded=0;" edge="1" parent="WIyWlLk6GJQsqaUBKTNV-1" source="lOwTtvnKk4PYjDAWeUM3-93" target="lOwTtvnKk4PYjDAWeUM3-49">
          <mxGeometry width="160" relative="1" as="geometry">
            <mxPoint x="570" y="960" as="sourcePoint" />
            <mxPoint x="850" y="880" as="targetPoint" />
            <Array as="points">
              <mxPoint x="460" y="960" />
              <mxPoint x="855" y="960" />
            </Array>
          </mxGeometry>
        </mxCell>
        <mxCell id="lOwTtvnKk4PYjDAWeUM3-102" value="" style="endArrow=open;endSize=12;dashed=1;html=1;rounded=0;" edge="1" parent="WIyWlLk6GJQsqaUBKTNV-1" source="lOwTtvnKk4PYjDAWeUM3-93" target="lOwTtvnKk4PYjDAWeUM3-60">
          <mxGeometry width="160" relative="1" as="geometry">
            <mxPoint x="940" y="960" as="sourcePoint" />
            <mxPoint x="1240" y="890" as="targetPoint" />
            <Array as="points">
              <mxPoint x="460" y="960" />
              <mxPoint x="1240" y="960" />
              <mxPoint x="1240" y="925" />
            </Array>
          </mxGeometry>
        </mxCell>
        <mxCell id="lOwTtvnKk4PYjDAWeUM3-103" value="" style="endArrow=open;endSize=12;dashed=1;html=1;rounded=0;" edge="1" parent="WIyWlLk6GJQsqaUBKTNV-1" source="lOwTtvnKk4PYjDAWeUM3-85" target="lOwTtvnKk4PYjDAWeUM3-30">
          <mxGeometry width="160" relative="1" as="geometry">
            <mxPoint x="990" y="1100" as="sourcePoint" />
            <mxPoint x="1150" y="1100" as="targetPoint" />
            <Array as="points">
              <mxPoint x="780" y="930" />
              <mxPoint x="405" y="930" />
            </Array>
          </mxGeometry>
        </mxCell>
        <mxCell id="lOwTtvnKk4PYjDAWeUM3-104" value="" style="endArrow=open;endSize=12;dashed=1;html=1;rounded=0;" edge="1" parent="WIyWlLk6GJQsqaUBKTNV-1" source="lOwTtvnKk4PYjDAWeUM3-85" target="lOwTtvnKk4PYjDAWeUM3-52">
          <mxGeometry width="160" relative="1" as="geometry">
            <mxPoint x="790" y="1010" as="sourcePoint" />
            <mxPoint x="415" y="910" as="targetPoint" />
            <Array as="points">
              <mxPoint x="780" y="930" />
              <mxPoint x="1075" y="930" />
            </Array>
          </mxGeometry>
        </mxCell>
        <mxCell id="lOwTtvnKk4PYjDAWeUM3-105" value="" style="endArrow=open;endSize=12;dashed=1;html=1;rounded=0;" edge="1" parent="WIyWlLk6GJQsqaUBKTNV-1" source="lOwTtvnKk4PYjDAWeUM3-85" target="lOwTtvnKk4PYjDAWeUM3-62">
          <mxGeometry width="160" relative="1" as="geometry">
            <mxPoint x="870" y="1180" as="sourcePoint" />
            <mxPoint x="1030" y="1180" as="targetPoint" />
            <Array as="points">
              <mxPoint x="780" y="930" />
              <mxPoint x="1220" y="930" />
              <mxPoint x="1220" y="1045" />
            </Array>
          </mxGeometry>
        </mxCell>
        <mxCell id="lOwTtvnKk4PYjDAWeUM3-106" value="" style="endArrow=open;endSize=12;dashed=1;html=1;rounded=0;" edge="1" parent="WIyWlLk6GJQsqaUBKTNV-1" source="lOwTtvnKk4PYjDAWeUM3-89" target="lOwTtvnKk4PYjDAWeUM3-33">
          <mxGeometry width="160" relative="1" as="geometry">
            <mxPoint x="760" y="1030" as="sourcePoint" />
            <mxPoint x="640" y="1000" as="targetPoint" />
            <Array as="points">
              <mxPoint x="780" y="1230" />
              <mxPoint x="980" y="1230" />
              <mxPoint x="980" y="950" />
              <mxPoint x="625" y="950" />
            </Array>
          </mxGeometry>
        </mxCell>
        <mxCell id="lOwTtvnKk4PYjDAWeUM3-108" value="" style="endArrow=open;endSize=12;dashed=1;html=1;rounded=0;" edge="1" parent="WIyWlLk6GJQsqaUBKTNV-1" source="lOwTtvnKk4PYjDAWeUM3-89">
          <mxGeometry width="160" relative="1" as="geometry">
            <mxPoint x="1030" y="1250" as="sourcePoint" />
            <mxPoint x="1280" y="860" as="targetPoint" />
            <Array as="points">
              <mxPoint x="780" y="1230" />
              <mxPoint x="980" y="1230" />
              <mxPoint x="980" y="950" />
              <mxPoint x="1280" y="950" />
            </Array>
          </mxGeometry>
        </mxCell>
        <mxCell id="lOwTtvnKk4PYjDAWeUM3-109" value="" style="endArrow=open;endSize=12;dashed=1;html=1;rounded=0;" edge="1" parent="WIyWlLk6GJQsqaUBKTNV-1" source="lOwTtvnKk4PYjDAWeUM3-89" target="lOwTtvnKk4PYjDAWeUM3-64">
          <mxGeometry width="160" relative="1" as="geometry">
            <mxPoint x="760" y="1030" as="sourcePoint" />
            <mxPoint x="920" y="1030" as="targetPoint" />
            <Array as="points">
              <mxPoint x="780" y="1230" />
              <mxPoint x="980" y="1230" />
              <mxPoint x="980" y="950" />
              <mxPoint x="1280" y="950" />
              <mxPoint x="1280" y="1155" />
            </Array>
          </mxGeometry>
        </mxCell>
      </root>
    </mxGraphModel>
  </diagram>
</mxfile>
